<svg version="1.2" xmlns="http://www.w3.org/2000/svg" viewBox="3501 0 643 512" width="643" height="512">
	<style>
		.s0 { fill: #fefdfd } 
		.s1 { fill: #f6dde0 } 
		.s2 { fill: #f5dcdf } 
		.s3 { fill: #f9e6e7 } 
		.s4 { fill: #eb455b } 
	</style>
	<g id="Layer 1">
		<g id="Logo">
			<path class="s0" d="m3784.86 309.18c-2.49 4.82-4.98 9.64-7.9 14.96-0.21 2.1 0 3.7 0.18 5-11.48 19.65-25.69 35.48-51.84 33.41q3.15 2.81 6.29 5.61c16.6 18.17 36.88 22.15 59.27 15.51 5.55 13.82 11.4 27.18 16.22 40.91 2.59 7.38 3.39 15.4 5.15 23.85-17.16 1.14-31.33-3.01-44.41-11.4-12.97-8.32-22.38-19.64-27.36-32.64-11.32 1.5-21.81 3.97-32.33 4.06-19.42 0.16-36.3-13.41-40.75-31.15-5.68-22.67 7.65-44.51 31.09-50.91 9.03-2.46 18.06-2.88 27.2-0.4 5.38 1.46 9.47-0.65 10.61-5.04 1.09-4.19-1.34-8.09-6.49-9.32-27.11-6.44-56.77 2.74-71.78 26.58-7.12 11.31-9.12 23.65-6.62 36.75 0.25 1.31 0.49 2.63 0.85 4.53-9.52 1.48-18.78 1.85-27.93-0.13-22.62-4.9-39.28-16.89-45.38-40.3-3.08-11.82-1.99-23.34 5.07-33.76 2.44-3.6 3.63-7.1-0.05-10.46-2.75-2.52-7.76-1.97-11.04 1.58-7.65 8.28-10.96 18.54-10.73 29.5 0.16 8.21 2.11 16.38 3.32 24.92-2.71-0.73-6.37-1.37-9.76-2.69-23.29-9.08-37.72-26.63-44.63-49.91-11.22-37.85-2.95-71.38 25.64-99.05 8.89-8.61 19.84-14.37 32.08-17.07 1.8-0.39 3.94 0.67 5.9 1.16 3.04 0.76 6.02 2.15 9.09 2.34 26.85 1.67 46.18 14.64 58.2 38.53 1.73 3.43 2.58 7.37 3.48 11.15 1.37 5.76 4.67 8.71 9.39 7.94 4.7-0.77 7.01-4.54 5.74-10.67-3.37-16.34-11.3-30.16-23.92-41.15-14.36-12.5-31.17-19.09-50.08-20.53-1.33-0.1-2.64-0.37-3.92-0.55 1.3-39.35 43.71-76.83 95.68-70.62 1.81 7.43 2.17 7.73 9.68 8.28 26.32 1.9 46.26 19.56 51.29 45.41 0.91 4.67 4.7 7.38 9.2 6.58 4.34-0.77 6.6-4.01 5.89-9.14-2.8-20.28-13.75-35.53-30.85-45.79-9.46-5.68-20.34-8.98-30.33-13.25 14.13-20.89 64.45-38.87 107.31-12.38 30.77 19.02 45.7 75.02 26.87 100.94-2.13-5.27-4.32-10.69-6.79-16.75-7.98-15.9-20.82-25.87-35.22-34.79 20.26 40.37 13.42 80.66 1.53 121.42 8.64-6.53 16.4-13.56 24.34-20.38 1.82-1.57 4.24-2.45 6.39-3.64-8.03 16.62-17.78 32.1-30.67 46.18-0.61 0.65-0.8 0.9-1.17 1.38-0.75 0.47-1.27 0.75-1.68 1.01 0.11-0.02 0.02 0.24 0.02 0.24 0 0-0.04-0.3 0.31-0.12 1-0.1 1.65-0.38 2.56-0.69 0.49-0.28 0.72-0.54 0.95-0.79 10.52-9.1 21.03-18.2 31.88-27.03 0.16 10.9-4.03 19.77-11.01 27.68-7.59 8.6-14.83 17.52-22.17 26.36-2.09 2.53-3.9 5.25-1.86 8.73zm-57.05-60.75c-13.27 17.93-31.56 27.07-53.26 29.53-19.37 2.2-36.57-1.97-48.67-18.99-2.32-3.26-7.7-3.9-10.56-1.54-3.51 2.9-3.63 6.98-1.05 10.03 4.79 5.64 9.72 11.5 15.68 15.74 14.82 10.54 31.85 12.03 49.33 9.4 27.64-4.16 49.99-16.8 64.98-41.12 0.85-1.38 3.33-2.24 5.15-2.45 8.2-0.96 16.48-1.33 24.65-2.47 3.31-0.47 6.1-2.87 5.45-6.83-0.66-3.96-3.34-6.28-7.43-6.44-2.01-0.07-4.05 0.33-6.06 0.61-13.26 1.84-25.82 1.22-35.87-9.41-7.3-7.72-9.06-17.19-9.39-27.29-0.14-4.64-3.51-7.82-7.72-7.87-4.28-0.06-7.66 3.04-7.84 7.71-0.37 9.85 0.58 19.74 6.44 27.86 5.17 7.17 11.77 13.31 18.2 20.41-0.01 0.02-0.79 1.28-2.03 3.12zm56.33-121.83c0 0 0.04-0.01 0 0z"/>
			<path class="s0" d="m3821.45 286.44c9.54-9.68 19.55-18.95 28.51-29.14 12.78-14.54 22.02-31.25 24.73-50.67 1.18-8.49 0.62-17.28 0.21-25.91-0.14-3 0.6-4.37 2.77-6.2 4.91-4.15 9.29-8.93 14.1-13.21 1.57-1.4 3.8-2.9 5.73-2.92 36.41-0.24 72.83-0.28 109.24-0.24 1.6 0.01 3.46 0.96 4.75 2.02 6.27 5.16 11.98 11.09 18.63 15.68 42.61 29.44 76.58 66.15 97.21 114.23 6.41 14.94 10.81 30.4 11.71 46.76 1.88 34.13-12.25 57.35-43.66 71.06-22.18 9.69-45.63 15.05-69.55 17.09-26.56 2.27-53.28 2.72-79.93 3.88-2.35 0.11-4.74-0.35-7.57-0.99-2.06-2.03-3.38-4.22-5.31-5.09-3.37-1.52-7.07-2.45-10.72-3.25-18.73-4.13-36.87-9.85-52.33-21.64-12.25-9.34-22.28-20.2-24.27-36.75-2.12-17.64 1.83-34.19 7.64-50.41 6.36-17.75 13.55-35.2 20.35-52.79 0.63-1.64 1.12-3.34 2.14-6.43-2.27 1.45-3.23 1.99-4.11 2.64-14.54 10.86-29.07 21.75-43.63 32.59-2.21 1.65-4.55 2.53-6.64-0.31zm150.54-61.18c-1.03-1.37-2.83-2.68-2.96-4.13-0.39-4.49-0.14-9.03-0.14-13.72-7.67 0-14.57 0-22 0 0 6.01 0 11.73 0 17.51-2.6 0.69-4.73 1.21-6.83 1.83-15.05 4.44-24.04 15.14-25.16 29.91-0.98 12.78 6.02 23.81 20.14 30.15 7.72 3.47 16.06 5.56 23.96 8.67 3.88 1.53 7.87 3.45 10.99 6.14 5.09 4.37 4.81 11.76-0.82 15.34-3.67 2.33-8.45 3.72-12.82 3.96-12.55 0.7-24.12-3.16-35.09-9.77-2.93 6.39-5.65 12.57-8.59 18.65-1.29 2.64-0.08 3.87 2.11 4.6 6.6 2.19 13.19 4.45 19.89 6.32 3.85 1.08 7.89 1.47 12.31 2.25 0 5.95 0 11.49 0 17.06 7.63 0 14.69 0 22.24 0 0-4.88 0.2-9.46-0.07-14-0.21-3.48 0.89-5.08 4.46-5.91 7.94-1.85 15.06-5.56 20.26-12.03 13.18-16.39 8.96-38.93-9.62-48.76-8.05-4.26-17.02-6.77-25.53-10.16-4.08-1.63-8.6-2.82-11.93-5.46-2.41-1.9-4.17-5.78-4.44-8.93-0.34-4.03 2.79-7.14 6.75-7.88 5.28-0.99 10.9-2.2 16.05-1.36 7.94 1.29 15.6 4.23 23.94 6.63 2.44-5.79 5.17-12.24 8.38-19.83-8.7-2.45-16.65-4.68-25.48-7.08zm-95.72 24.08q0.29 0.23 0.57 0.46 0.14-0.38 0.28-0.76c-0.25 0.01-0.5 0.02-0.85 0.3z"/>
			<path class="s0" d="m3884.88 131.14c-6.05-9.23-12.16-18.42-18.13-27.7-2.94-4.58-5.6-9.34-8.43-13.98-3.56-5.85-2.96-8.29 3.37-11.03 10.4-4.51 20.45-4.25 30.02 2.52 16.17 11.44 18.96 11.27 33.98-1.43 9.93-8.4 23.16-9.97 34.79-3.94 3.16 1.64 6.19 3.6 9.06 5.72 8.49 6.26 17.11 6.04 26.4 1.62 6.69-3.18 13.66-6.3 20.84-7.77 5.25-1.07 11.19-0.04 16.57 1.17 6.09 1.36 7.17 4.31 4.2 9.77-3.49 6.42-7.48 12.57-11.18 18.89-6.61 11.3-13.23 22.61-19.7 34-1.42 2.5-3.02 3.53-5.99 3.51-26.73-0.19-53.45-0.21-80.79-0.65-1.92-1.44-3.11-2.69-4.56-3.52-7.21-4.15-13.99-8.66-19.31-15.38-2.05-2.59-6.12-3.58-9.37-5.35-0.67 5.19-1.22 9.37-1.77 13.55z"/>
			<path class="s1" d="m3821.12 286.55c2.42 2.73 4.76 1.85 6.97 0.2 14.56-10.84 29.09-21.73 43.63-32.59 0.88-0.65 1.84-1.19 4.11-2.64-1.02 3.09-1.51 4.79-2.14 6.43-6.8 17.59-13.99 35.04-20.35 52.79-5.81 16.22-9.76 32.77-7.64 50.41 1.99 16.55 12.02 27.41 24.27 36.75 15.46 11.79 33.6 17.51 52.33 21.64 3.65 0.8 7.35 1.73 10.72 3.25 1.93 0.87 3.25 3.06 4.89 5.01-17.04-1.1-34.28-1.55-51.15-4.32-15.16-2.48-30.04-7.09-44.81-11.55-8.88-2.69-16.51-8.13-22.34-15.51-8.09-10.22-9.12-22-6.86-34.39 3.31-18.21 12.75-33.59 22.78-48.6 8.03-12.02 16.64-23.64 24.95-35.47 0.91-1.29 1.6-2.73 3.03-5.22-1.92 0.81-2.6 0.9-3.01 1.29-13.73 12.94-27.94 25.41-41 39-14.24 14.81-24.3 32.26-28.03 52.91-0.27 1.53-2.25 3.38-3.84 3.94-16.64 5.86-33.31 5.95-49.93-0.25-1.72-0.64-3.53-1.02-5.71-1.5-2.49-1.84-4.59-3.71-6.69-5.58 26.15 2.07 40.36-13.76 51.84-33.41-0.18-1.3-0.39-2.9-0.39-4.68 1.13-0.46 2.27-0.48 2.92-1.06 13.74-12.21 27.43-24.49 41.45-36.85zm43.19-14.23c-0.46-0.19-0.92-0.38-2 0.02q0.03 0.66 0.07 1.32c0.51-0.26 1.01-0.52 1.93-1.34z"/>
			<path class="s2" d="m3817.95 225.99c-2.4 1.43-4.82 2.31-6.64 3.88-7.94 6.82-15.7 13.85-24.34 20.38 11.89-40.76 18.73-81.05-1.53-121.42 14.4 8.92 27.24 18.89 34.99 34.51-0.33 1.54-1.16 2.79-0.99 3.89 1.61 10.34 3.98 20.6 4.93 30.99 0.88 9.61-2.08 18.8-6.42 27.77z"/>
			<path class="s1" d="m3785.19 309.09c-2.37-3.39-0.56-6.11 1.53-8.64 7.34-8.84 14.58-17.76 22.17-26.36 6.98-7.91 11.17-16.78 11.31-27.89 10.3-13.74 18.76-28.12 23.52-44.25 3.21-10.86 4.99-22.14 7.46-33.46 3.02 7.17 6.32 14.41 7.01 22.61 1.76 20.99-4.97 39.61-17.75 55.56-12.84 16.02-27.35 30.71-41.05 46.05-4.74 5.32-9.25 10.85-14.2 16.38z"/>
		</g>
		<path class="s2" d="m3784.16 126.59c0.02 0-0.02 0.01 0 0z"/>
		<path class="s1" d="m3876.32 249.2c0.3-0.14 0.55-0.15 0.8-0.16q-0.14 0.38-0.28 0.76c-0.19-0.15-0.38-0.31-0.52-0.6z"/>
		<g id="Folder 1">
			<path class="s3" d="m3884.97 131.47c0.46-4.51 1.01-8.69 1.68-13.88 3.25 1.77 7.32 2.76 9.37 5.35 5.32 6.72 12.1 11.23 19.31 15.38 1.45 0.83 2.64 2.08 4.09 3.43-7.77 0.41-15.69 0.69-23.6 0.49-1.64-0.05-3.53-1.59-4.8-2.92-2.19-2.31-3.99-4.99-6.05-7.85z"/>
			<path class="s4" d="m3784.08 274.82c0.51-0.28 1.03-0.56 1.95-0.86 0.41-0.03 0.78 0.3 0.78 0.3-0.65 0.28-1.3 0.56-2.31 0.7-0.35-0.14-0.42-0.14-0.42-0.14z"/>
			<path class="s4" d="m3786.27 273.76c-0.04-0.45 0.15-0.7 0.58-1.06 0.35 0.01 0.52 0.15 0.93 0.52 0.01 0.47-0.22 0.73-0.71 1.01-0.26 0.03-0.63-0.3-0.8-0.47z"/>
			<path class="s4" d="m3784.16 274.78c0-0.04 0.04 0.26 0.04 0.26 0 0 0.09-0.26-0.02-0.24-0.1 0.02-0.03 0.02-0.02-0.02z"/>
			<path class="s4" d="m3862.93 271.75c0.46 0.19 0.92 0.38 0.93 0.56-0.6-0.19-0.77-0.37-0.93-0.56z"/>
			<path class="s4" d="m3863.66 272.59c-0.27 0.55-0.77 0.81-1.28 1.07-0.03-0.44-0.05-0.88 0.24-1.62 0.47-0.1 0.64 0.08 1.04 0.55z"/>
		</g>
	</g>
</svg>